<?xml version='1.0' encoding='utf-8'?>
<!DOCTYPE svg PUBLIC '-//W3C//DTD SVG 1.1//EN' 'http://www.w3.org/Graphics/SVG/1.1/DTD/svg11.dtd'>
<svg version="1.1" xmlns="http://www.w3.org/2000/svg" viewBox="0 0 512 512" xmlns:xlink="http://www.w3.org/1999/xlink" enable-background="new 0 0 512 512">
  <g>
    <g>
      <path d="m146.5,136.4c35.4,0 63.5-28.2 62.5-62.7 0-34.5-28.1-62.7-62.5-62.7-34.4,0-62.5,28.2-62.5,62.7s28.1,62.7 62.5,62.7zm0-105.5c23.9-7.10543e-15 42.7,18.8 42.7,42.8s-18.7,42.8-42.7,42.8c-23.9,0-42.7-18.8-42.7-42.8s18.7-42.8 42.7-42.8z"/>
      <path d="m241.8,179.7c-9.4-20.3-31.2-33.6-54.1-33.6h-41.9-41.9c-22.9,0-44.8,13.2-54.1,33.6l-35.4,72.2c-8.3,15.3-1,34.6 15.6,42.7 10.4,5.1 23.9,3.1 33.3-3.1v172.8c0,20.3 16.7,36.6 37.5,36.6 20.8,0 37.5-16.3 37.5-36.6v-124c0-4.8 2.8-7.8 7.6-8.1 4.8,0.3 7.6,3.3 7.6,8.1v124c0,20.3 16.7,36.6 37.5,36.6 20.8,0 37.5-16.3 37.5-36.6v-172.7c9.4,6.1 22.9,8.1 33.3,3.1 16.7-8.1 23.9-27.5 15.6-42.7l-35.6-72.3zm11.5,96.6c-6.2,3.1-14.6,0-16.7-6.1l-28.1-56.9v251.1c0,9.2-7.3,16.3-16.7,16.3-9.4,0-16.7-7.1-16.7-16.3v-124c-2-15-14.2-27.1-29.4-27.4-15.3,0.4-27.4,12.4-29.4,27.4v124c0,9.2-7.3,16.3-16.7,16.3s-16.6-7.2-16.6-16.3v-251.1l-28.1,56.9c-2.1,6.1-10.4,9.2-16.7,6.1-6.2-2-9.4-10.2-6.2-16.3l35.4-72.2c6.2-13.2 19.8-22.4 35.4-22.4h43 43c15.6,0 29.1,9.2 35.4,22.4l35.4,72.2c3,6.1-0.1,14.3-6.3,16.3z"/>
      <path d="m375.7,268h58.1c4.5,13.8 17.6,24 32.7,24 18.7,0 34.4-15.7 34.4-34.5s-15.6-34.5-34.4-34.5c-15.1,0-28.2,10.2-32.7,24h-58.1v-187.9h58.4c4.8,13.3 17.6,23 32.3,23 18.7,0 34.4-14.6 34.4-34.5 0-18.8-15.6-34.5-34.4-34.5-15.5,0-28.9,10.7-33,25.1h-78.6v209h-56.4v20.8h56.4v209h78.9c4.5,13.8 17.6,24 32.7,24 18.7,0 34.4-15.7 34.4-34.5s-15.6-34.5-34.3-34.5c-15.1,0-28.2,10.2-32.7,24h-58.1v-188zm90.8-24c7.3,0 13.5,6.3 13.5,13.6 0,7.3-6.2,13.6-13.5,13.6s-13.5-6.3-13.5-13.6c-0.1-7.3 6.2-13.6 13.5-13.6zm0-209c7.3,0 13.5,5.2 13.5,13.6 0,7.3-6.2,13.6-13.5,13.6s-13.5-6.3-13.5-13.6c-0.1-7.3 6.2-13.6 13.5-13.6zm0,417.9c7.3,0 13.5,6.3 13.5,13.6 0,7.3-6.2,13.6-13.5,13.6s-13.5-6.3-13.5-13.6c-0.1-7.3 6.2-13.6 13.5-13.6z"/>
    </g>
  </g>
</svg>
